<?xml version="1.0" standalone="no"?><!DOCTYPE svg PUBLIC "-//W3C//DTD SVG 1.1//EN" "http://www.w3.org/Graphics/SVG/1.1/DTD/svg11.dtd"><svg t="1607405912007" class="icon" viewBox="0 0 1024 1024" version="1.1" xmlns="http://www.w3.org/2000/svg" p-id="10699" xmlns:xlink="http://www.w3.org/1999/xlink" width="200" height="200"><defs><style type="text/css"></style></defs><path d="M788.203796 286.433566C788.203796 134.00999 664.423576 10.22977 512 10.22977S235.796204 134.00999 235.796204 286.433566c0 100.251748 53.194805 187.204795 132.987013 236.307693C167.256743 584.11988 20.971029 771.324675 20.971029 992.287712c0 17.390609 13.298701 30.689311 30.689311 30.689311s30.689311-13.298701 30.68931-30.689311c0-237.330669 192.31968-429.65035 429.65035-429.650349 152.423576 0 276.203796-123.78022 276.203796-276.203797zM512 501.258741c-118.665335 0-214.825175-96.15984-214.825175-214.825175S393.334665 71.608392 512 71.608392s214.825175 96.15984 214.825175 214.825174-96.15984 214.825175-214.825175 214.825175zM846.513487 676.187812h68.53946c17.390609 0 30.689311-13.298701 30.689311-30.689311s-13.298701-30.689311-30.689311-30.68931h-68.53946V552.407592h68.53946c17.390609 0 30.689311-13.298701 30.689311-30.68931s-13.298701-30.689311-30.689311-30.689311h-99.228771c-17.390609 0-30.689311 13.298701-30.689311 30.689311 0 2.045954 0 4.091908 1.022977 6.137862 0 2.045954-1.022977 4.091908-1.022977 6.137862V757.002997c0 3.068931 1.022977 7.160839 2.045954 10.22977-57.286713 13.298701-101.274725 64.447552-101.274725 126.849151 0 71.608392 58.30969 129.918082 129.918082 129.918082s129.918082-58.30969 129.918082-129.918082c0-61.378621-42.965035-113.55045-101.274726-126.849151 1.022977-3.068931 2.045954-6.137862 2.045955-10.22977v-80.815185z m37.850149 216.871129a68.539461 68.539461 0 1 1-137.078921 0 68.539461 68.539461 0 0 1 137.078921 0z" p-id="10700" fill="#ffffff"></path></svg>