<?xml version="1.0" standalone="no"?><!DOCTYPE svg PUBLIC "-//W3C//DTD SVG 1.1//EN" "http://www.w3.org/Graphics/SVG/1.1/DTD/svg11.dtd"><svg t="1607405386619" class="icon" viewBox="0 0 1024 1024" version="1.1" xmlns="http://www.w3.org/2000/svg" p-id="9899" xmlns:xlink="http://www.w3.org/1999/xlink" width="200" height="200"><defs><style type="text/css"></style></defs><path d="M896 960H128a64 64 0 0 1-64-64v-128h64v128h768v-128h64v128a64 64 0 0 1-64 64zM512 608C299.92 608 128 688.464 128 768H64c0-114.88 200.576-224 448-224s448 109.12 448 224h-64c0-79.536-171.92-160-384-160z m0-128a208 208 0 1 1 208-208 208 208 0 0 1-208 208z m0-352a144 144 0 1 0 144 144 144 144 0 0 0-144-144z" p-id="9900" fill="#ffffff"></path></svg>